<svg width="97" height="64" viewBox="0 0 97 64" fill="none" xmlns="http://www.w3.org/2000/svg">
    <path d="M34.0903 36.5895C34.585 37.1712 35.2368 37.7944 35.2368 38.4591C35.2368 39.5117 33.7783 40 31.8429 40C29.9075 40 29.631 39.9443 28.2486 39.6101C24.1719 38.3291 24.2118 37.8835 22.4768 36.5848C18.7117 32.8456 10.8379 21.3273 8.08959 16.8679C7.86972 17.9481 7.44374 20.0947 6.81163 23.3077C6.31694 25.9113 5.93218 27.8501 5.65736 29.1242C5.57491 29.5397 5.45123 29.8166 5.28634 29.9551C5.14892 30.0936 4.92906 30.1629 4.62675 30.1629C3.33506 30.1906 2.49683 30.2321 2.11207 30.2875C1.72731 30.3429 1.41126 30.4675 1.16392 30.6614C0.861606 30.6614 0.710449 30.5645 0.710449 30.3706C1.69983 28.1825 2.86785 24.1801 4.21451 18.3636C5.58865 12.5194 6.5368 8.0185 7.05898 4.86096C7.16891 4.14082 7.22388 3.7392 7.22388 3.6561C7.22388 3.35143 7.15517 3.17139 7.01775 3.116C6.88034 3.03291 6.63299 2.99136 6.27572 2.99136C5.53368 2.99136 4.72294 3.0606 3.84349 3.19909C2.90908 3.30988 2.20826 3.36528 1.74105 3.36528C1.35629 3.36528 1.08147 3.32373 0.916569 3.24064C0.779155 3.15755 0.710449 2.99136 0.710449 2.74208C0.710449 2.24352 0.83412 1.66186 1.08147 0.997119C1.32881 0.332373 1.5899 0 1.86473 0C1.89221 0.49856 2.40064 0.817083 3.39002 0.955572C4.3794 1.06636 5.69858 1.12176 7.34755 1.12176C8.91407 1.12176 11.0852 0.99712 13.861 0.74784C14.2732 0.692444 14.8641 0.637048 15.6336 0.581652C15.6336 0.803234 15.5924 1.17715 15.5099 1.70341C15.4275 2.22967 15.3725 2.57589 15.345 2.74208L12.0059 2.82517C11.6486 2.82517 11.415 3.00521 11.3051 3.36528C10.3432 6.7444 9.35379 10.8575 8.33693 15.7046C9.46372 14.8737 10.7142 13.9043 12.0883 12.7964C13.4625 11.6608 14.8091 10.539 16.1283 9.43109C18.6567 7.29836 20.7729 5.5534 22.4768 4.19621C24.1808 2.83902 25.9534 1.55107 27.7948 0.332374H28.4543C28.7017 0.470862 29.485 0.650897 30.8041 0.872479C31.6286 1.01097 32.1508 1.12176 32.3706 1.20485V1.53723C31.9309 1.45413 30.3507 2.32661 27.6299 4.15466C24.9365 5.98272 21.9684 8.10159 18.7254 10.5113C15.4825 12.921 13.0915 14.7491 11.5524 15.9955C14.2183 20.1224 22.749 32.69 25.6923 34.5905C28.6356 36.4911 32.991 37.6421 34.0903 36.5895Z" fill="#292D32"/>
    <path d="M65.9467 56.5524C66.4428 57.1307 67.0965 57.7503 67.0965 58.4112C67.0965 59.4576 67.0965 59.3947 64.6354 60.8699C62.1743 62.3451 55.7213 63.3237 54.9525 63.4151C47.4078 64.312 46.2934 63.9108 44.1985 63.9108C39.4023 63.9108 30.7216 61.7078 26.1459 59.4497C21.5978 57.1917 17.4218 54.2176 13.618 50.5276C9.84167 46.8101 16.843 48.5449 16.843 48.5449C20.5366 51.8219 24.4369 54.3966 28.544 56.2692C32.6511 58.1692 40.6289 60.1932 44.4879 60.1932C46.6931 60.1932 51.6477 60.1932 55.2832 59.4497C58.2365 58.9029 64.8441 57.5988 65.9467 56.5524Z" fill="#114D72"/>
    <mask id="mask0_1785_28178" style="mask-type:luminance" maskUnits="userSpaceOnUse" x="64" y="39" width="24" height="24">
        <path d="M67.7611 39.9872L87.0835 43.6045L83.473 62.9634L64.1507 59.3461L67.7611 39.9872Z" fill="white"/>
    </mask>
    <g mask="url(#mask0_1785_28178)">
        <path d="M84.7917 47.7438L73.2789 55.6461C72.5908 56.1183 71.7688 56.3451 70.9389 56.2899L70.7233 56.2695L70.7036 56.2659C70.6072 56.2478 70.5402 56.1752 70.5392 56.0748L70.5314 55.4724C70.5235 55.4107 70.557 55.3369 70.6219 55.309L85.8923 44.8445C85.9838 44.7815 86.1 44.8032 86.162 44.8952L86.3352 45.1478C86.3707 45.1745 86.3786 45.2361 86.3717 45.2749C86.2919 45.7008 86.158 46.0964 85.9474 46.4776C85.6727 46.9872 85.2731 47.4132 84.7917 47.7438ZM79.1638 58.1902L77.9253 59.0403C77.7875 59.1347 77.6418 59.1675 77.4873 59.1385L77.3898 59.1205C77.2048 59.0455 77.0719 58.9004 77.0226 58.7311L75.7852 54.4323L78.8418 52.2999L79.4069 57.6347C79.4443 57.8622 79.3469 58.0643 79.1638 58.1902ZM73.1568 49.9735L70.047 47.3477C69.9112 47.222 69.8236 47.0454 69.8374 46.8676C69.8541 46.6704 69.9447 46.507 70.1051 46.3969L71.3662 45.531C71.569 45.4087 71.8111 45.394 72.01 45.5113L76.0658 47.9937L73.1568 49.9735Z" fill="#292D32"/>
        <path d="M70.4026 54.9869C70.2421 55.097 70.1476 55.2798 70.1506 55.4806L70.1585 56.083C70.1654 56.3649 70.3613 56.6019 70.632 56.6526L70.6507 56.6561L70.9056 56.6839L70.945 56.6911L70.9815 58.4211C70.9913 58.5831 70.9086 58.7078 70.7905 58.8059L70.3544 59.105C70.2628 59.1679 70.1358 59.2043 70.0197 59.1826L69.9429 59.1681C69.811 59.1234 69.6938 59.0013 69.6613 58.855L69.1002 56.6063L69.0855 56.5834L65.8014 53.6045C65.7 53.5054 65.6439 53.3748 65.6498 53.2356C65.6557 53.0965 65.7394 52.9718 65.8536 52.8931L66.7248 52.2949C66.8863 52.1847 67.0822 52.2015 67.2259 52.2886L68.4318 53.1153C68.7005 53.2857 69.0205 53.2855 69.2725 53.1123L77.9866 47.1306L78.8588 46.5324C79.9357 45.7926 81.117 45.2523 82.3731 44.9466L82.3928 44.9502C82.4125 44.9538 82.4155 44.9345 82.4352 44.9381C82.7079 44.8689 82.9776 44.8192 83.266 44.7731L83.6352 44.722C83.6775 44.7098 83.7159 44.7171 83.7779 44.7087C83.9472 44.6601 84.089 44.6467 84.2357 44.614C84.6403 44.5895 85.0833 44.5723 85.5194 44.5938L70.4026 54.9869ZM74.107 50.6716C73.7979 50.6138 73.4996 50.8184 73.4386 51.1475C73.3805 51.4573 73.5852 51.7559 73.8943 51.8138C74.2034 51.8717 74.5204 51.6707 74.5785 51.3609C74.6396 51.0318 74.4358 50.7331 74.107 50.6716ZM75.7579 49.5383C75.4487 49.4804 75.1505 49.685 75.0934 49.9947C75.0353 50.3045 75.2391 50.6032 75.5491 50.661C75.8583 50.7189 76.1752 50.5179 76.2333 50.2081C76.2717 49.8948 76.067 49.5962 75.7579 49.5383ZM76.7216 48.8771C76.6635 49.1869 76.8643 49.5049 77.1734 49.5627C77.4826 49.6206 77.7995 49.4196 77.8615 49.0905C77.9186 48.7808 77.7188 48.4627 77.39 48.4013C77.0809 48.3434 76.7787 48.5674 76.7216 48.8771ZM82.571 45.2841C82.5287 45.2962 82.5287 45.2962 82.509 45.2925C81.31 45.609 80.1759 46.1179 79.1206 46.842L78.4325 47.3142C78.7682 47.6575 79.3165 47.7202 79.729 47.4368L82.9855 45.2015C82.8398 45.2342 82.697 45.2477 82.571 45.2841Z" fill="#114D72"/>
    </g>
    <path d="M48.4266 22.6477C48.8957 22.869 49.1303 23.187 49.1303 23.6018C49.1303 24.8462 48.399 26.1598 46.9364 27.5425C45.5014 28.8975 43.7077 30.0452 41.5552 30.9854C39.4302 31.898 37.4571 32.3543 35.6358 32.3543C34.1456 32.3543 32.8762 32.0501 31.8275 31.4417C30.7788 30.8333 29.9785 30.1558 29.4266 29.4091C28.9023 28.6348 28.6401 28.0679 28.6401 27.7084C28.8333 26.9894 29.0127 26.1321 29.1783 25.1366C29.3714 24.141 29.5094 23.4497 29.5922 23.0625C29.675 22.5648 29.7716 21.984 29.882 21.3203C30.0199 20.629 30.1855 19.8408 30.3787 18.9559C30.4891 18.4028 30.972 17.7944 31.8275 17.1308C32.683 16.4394 33.6488 15.8725 34.7251 15.43C35.8289 14.9599 36.7396 14.7249 37.4571 14.7249C38.0642 14.7249 38.7817 14.8908 39.6096 15.2226C40.4651 15.5545 41.1964 16.0246 41.8035 16.633C42.4106 17.2137 42.7142 17.9051 42.7142 18.707C42.7142 19.7302 42.2037 20.7258 41.1826 21.6937C40.1891 22.6616 38.9197 23.4635 37.3743 24.0996C35.8289 24.708 34.3112 25.0398 32.821 25.0951L32.4898 26.8373C32.5726 27.6946 32.9727 28.4412 33.6902 29.0773C34.4077 29.6857 35.484 29.9899 36.919 29.9899C38.2988 29.9899 39.7338 29.6718 41.224 29.0358C42.7418 28.3998 44.1354 27.5287 45.4048 26.4225C46.7018 25.2887 47.7091 24.0304 48.4266 22.6477ZM37.0846 16.4671C36.3947 16.4671 35.7186 16.7989 35.0563 17.4626C34.4215 18.1263 34.0214 18.79 33.8558 19.4537L33.1521 23.2285C34.8079 23.1178 36.2153 22.6339 37.3743 21.7766C38.5334 20.9194 39.1129 19.91 39.1129 18.7485C39.1129 18.0572 38.9059 17.5041 38.492 17.0893C38.1056 16.6745 37.6365 16.4671 37.0846 16.4671ZM75.1249 24.4314C75.3457 24.6526 75.4561 24.9154 75.4561 25.2196C75.4561 26.4363 74.9042 27.6116 73.8003 28.7454C72.7241 29.8793 71.3581 30.8057 69.7023 31.5247C68.0741 32.216 66.5011 32.5617 64.9833 32.5617C63.3552 32.5617 62.0167 32.1054 60.9681 31.1928C59.947 30.2802 59.3813 28.9528 59.2709 27.2106C58.3603 28.8422 57.2978 30.142 56.0833 31.1099C54.8966 32.0778 53.5996 32.5617 52.1922 32.5617C50.8124 32.5617 49.7361 32.1054 48.9634 31.1928C48.2184 30.2526 47.8458 28.9943 47.8458 27.418C47.8458 25.9247 48.3839 22.5371 49.4602 17.2552L45.031 17.3382C44.7826 17.3382 44.6033 17.2275 44.4929 17.0063C44.5205 16.9233 44.6584 16.6191 44.9068 16.0937C45.1828 15.5406 45.4035 15.1811 45.5691 15.0152L49.9155 15.0567L51.7369 6.59457C51.9852 5.40544 52.2336 4.61731 52.482 4.23015C52.7303 3.84299 53.2271 3.64941 53.9722 3.64941C54.6897 3.64941 55.3796 3.78768 56.0419 4.06422C56.0143 4.17484 55.9039 4.47904 55.7107 4.97681C55.5175 5.47458 55.352 6.06914 55.214 6.76049L53.4754 15.0567L61.2579 15.0982C61.3958 14.3239 61.5338 13.674 61.6718 13.1486C62.3617 9.71947 62.886 7.29975 63.2448 5.88939C63.5483 4.72792 64.252 4.14719 65.3559 4.14719C65.8802 4.14719 66.5425 4.2578 67.3428 4.47903C67.2876 4.67261 67.1772 4.97681 67.0117 5.39162C66.8737 5.77877 66.7495 6.22124 66.6391 6.71901C65.9216 9.81626 65.3007 12.6231 64.7764 15.1397L71.3167 15.1811C71.3167 15.5406 71.2063 15.8863 70.9855 16.2182C70.7923 16.5224 70.4888 16.6745 70.0748 16.6745C68.7778 16.6745 66.9013 16.7159 64.4452 16.7989C63.3966 22.0532 62.8722 25.3302 62.8722 26.6299C62.8722 29.1741 63.9485 30.4462 66.101 30.4462C67.8119 30.4462 69.4263 29.9346 70.9441 28.9114C72.4895 27.8605 73.8831 26.3672 75.1249 24.4314ZM60.8853 16.8819L53.0615 17.1308C51.93 23.104 51.3643 26.7682 51.3643 28.1232C51.3643 28.8422 51.5299 29.4091 51.8611 29.8239C52.2198 30.2388 52.6751 30.4462 53.2271 30.4462C54.1377 30.4462 55.0484 29.9899 55.9591 29.0773C56.8701 28.137 57.6979 26.8511 58.443 25.2196C59.1881 23.588 59.7952 21.7351 60.2644 19.6611L60.8853 16.8819ZM95.6269 22.4403C96.0685 22.5509 96.2893 22.7998 96.2893 23.187C96.2893 23.8507 95.7787 24.943 94.7577 26.464C93.7366 27.985 92.481 29.3538 90.9908 30.5706C89.5282 31.7597 88.0656 32.3543 86.603 32.3543C85.4991 32.3543 84.5609 32.0086 83.7882 31.3173C83.0155 30.5983 82.6153 29.6857 82.5877 28.5795C81.8426 29.6027 80.9872 30.4876 80.0213 31.2343C79.0554 31.981 78.1447 32.3543 77.2893 32.3543C76.4338 32.3543 75.5369 32.0086 74.5986 31.3173C73.6604 30.6259 73.136 29.9069 73.0257 29.1603L75.4679 15.7204C75.5783 15.195 75.7577 14.9323 76.006 14.9323C76.3372 14.9323 76.9305 15.0567 77.786 15.3056C78.6691 15.5268 79.1106 15.748 79.1106 15.9693C79.1106 16.0522 78.9864 16.5915 78.7381 17.587C78.4621 18.7485 78.0758 20.5322 77.579 22.9381C77.1099 25.344 76.7925 27.0724 76.627 28.1232C76.6822 28.5104 76.8753 28.8699 77.2065 29.2017C77.5652 29.5059 77.9792 29.658 78.4483 29.658C79.2486 29.658 80.0765 29.1879 80.932 28.2477C81.815 27.2798 82.5463 25.7865 83.1259 23.7677C83.6226 22.0808 84.2573 19.2878 85.03 15.3885C85.0852 15.0844 85.237 14.9323 85.4853 14.9323C85.8441 14.9323 86.4098 15.0567 87.1825 15.3056C87.9828 15.5268 88.3829 15.7757 88.3829 16.0522C87.5826 18.9283 86.9065 21.5277 86.3546 23.8507C85.8027 26.1736 85.5267 27.6946 85.5267 28.4136C85.5267 28.939 85.6785 29.3815 85.9821 29.741C86.3132 30.1005 86.7824 30.2802 87.3895 30.2802C88.5485 30.2802 89.8731 29.6027 91.3633 28.2477C92.8535 26.865 94.2747 24.9292 95.6269 22.4403Z" fill="#292D32"/>
</svg>
