<svg width="20" height="20" viewBox="0 0 20 20" fill="none" xmlns="http://www.w3.org/2000/svg">
    <g clip-path="url(#clip0_1792_24379)">
        <path d="M0.472188 6.95629C0.165859 7.91598 -3.90556e-05 8.93836 6.89667e-09 9.99965C-3.90556e-05 11.061 0.165898 12.0834 0.472227 13.0431L10 13.478L19.5278 13.0432C19.8341 12.0835 20 11.061 20 9.99973C20 8.9384 19.8341 7.91598 19.5278 6.95625L10 6.52148L0.472188 6.95629Z" fill="#F0F0F0"/>
        <path d="M19.5278 6.95625L10.0001 6.52148L0.472246 6.95625C0.381465 7.24078 0.303301 7.5309 0.237793 7.82582H19.7622C19.6967 7.53086 19.6186 7.2407 19.5278 6.95625Z" fill="#D80027"/>
        <path d="M0.237793 12.1738C0.303223 12.4688 0.381387 12.7588 0.472168 13.0434L0.473105 13.0434L9.9999 13.4782L19.5277 13.0434C19.6185 12.7589 19.6966 12.4688 19.7621 12.1738H0.237793Z" fill="#D80027"/>
        <path d="M9.9999 20.0005C14.4615 20.0005 18.24 17.0785 19.5277 13.0439H0.472168C1.75986 17.0784 5.53846 20.0005 9.9999 20.0005V20.0005Z" fill="#6DA544"/>
        <path d="M9.99994 3.91644e-10C5.53846 3.90629e-05 1.75994 2.92203 0.472168 6.95652L19.5277 6.95656C18.2401 2.92199 14.4615 -3.90621e-05 9.99994 3.91644e-10V3.91644e-10Z" fill="#338AF3"/>
        <path d="M4.56996 4.13031C4.56996 3.19371 5.2282 2.41129 6.10723 2.21934C5.97215 2.1898 5.83195 2.17383 5.68797 2.17383C4.60742 2.17383 3.73145 3.04977 3.73145 4.13035C3.73145 5.21094 4.60734 6.08688 5.68797 6.08688C5.83195 6.08688 5.97211 6.07086 6.10723 6.04137C5.22824 5.84934 4.56996 5.06691 4.56996 4.13031V4.13031Z" fill="#F0F0F0"/>
        <path d="M7.26373 5.01953L7.39615 5.42715H7.82475L7.47803 5.6791L7.61045 6.08672L7.26373 5.8348L6.91693 6.08672L7.04939 5.6791L6.70264 5.42715H7.13123L7.26373 5.01953Z" fill="#F0F0F0"/>
        <path d="M8.63182 5.01953L8.76428 5.42715H9.19287L8.84611 5.6791L8.97857 6.08672L8.63182 5.8348L8.28506 6.08672L8.41752 5.6791L8.0708 5.42715H8.49936L8.63182 5.01953Z" fill="#F0F0F0"/>
        <path d="M9.99957 5.01953L10.132 5.42715H10.5606L10.2139 5.6791L10.3463 6.08672L9.99957 5.8348L9.65277 6.08672L9.78527 5.6791L9.43848 5.42715H9.86711L9.99957 5.01953Z" fill="#F0F0F0"/>
        <path d="M11.3677 5.01953L11.5002 5.42715H11.9288L11.582 5.6791L11.7145 6.08672L11.3677 5.8348L11.0209 6.08672L11.1534 5.6791L10.8066 5.42715H11.2352L11.3677 5.01953Z" fill="#F0F0F0"/>
        <path d="M12.7358 5.01953L12.8683 5.42715H13.2969L12.9502 5.6791L13.0826 6.08672L12.7358 5.8348L12.3891 6.08672L12.5215 5.6791L12.1748 5.42715H12.6034L12.7358 5.01953Z" fill="#F0F0F0"/>
        <path d="M8.63182 3.59668L8.76428 4.00426H9.19287L8.84611 4.25625L8.97857 4.66383L8.63182 4.41191L8.28506 4.66383L8.41752 4.25625L8.0708 4.00426H8.49936L8.63182 3.59668Z" fill="#F0F0F0"/>
        <path d="M9.99957 3.59668L10.132 4.00426H10.5606L10.2139 4.25625L10.3463 4.66383L9.99957 4.41191L9.65277 4.66383L9.78527 4.25625L9.43848 4.00426H9.86711L9.99957 3.59668Z" fill="#F0F0F0"/>
        <path d="M11.3677 3.59668L11.5002 4.00426H11.9288L11.582 4.25625L11.7145 4.66383L11.3677 4.41191L11.0209 4.66383L11.1534 4.25625L10.8066 4.00426H11.2352L11.3677 3.59668Z" fill="#F0F0F0"/>
        <path d="M12.7358 3.59668L12.8683 4.00426H13.2969L12.9502 4.25625L13.0826 4.66383L12.7358 4.41191L12.3891 4.66383L12.5215 4.25625L12.1748 4.00426H12.6034L12.7358 3.59668Z" fill="#F0F0F0"/>
        <path d="M9.99957 2.17383L10.132 2.58148H10.5606L10.2139 2.8334L10.3463 3.24105L9.99957 2.98914L9.65277 3.24105L9.78527 2.8334L9.43848 2.58148H9.86711L9.99957 2.17383Z" fill="#F0F0F0"/>
        <path d="M11.3677 2.17383L11.5002 2.58148H11.9288L11.582 2.8334L11.7145 3.24105L11.3677 2.98914L11.0209 3.24105L11.1534 2.8334L10.8066 2.58148H11.2352L11.3677 2.17383Z" fill="#F0F0F0"/>
        <path d="M12.7358 2.17383L12.8683 2.58148H13.2969L12.9502 2.8334L13.0826 3.24105L12.7358 2.98914L12.3891 3.24105L12.5215 2.8334L12.1748 2.58148H12.6034L12.7358 2.17383Z" fill="#F0F0F0"/>
    </g>
    <defs>
        <clipPath id="clip0_1792_24379">
            <rect width="20" height="20" fill="white"/>
        </clipPath>
    </defs>
</svg>
